<svg xmlns="http://www.w3.org/2000/svg" viewBox="0 0 173.59 173.59"><defs><style>.cls-1{fill:#fff;}</style></defs><title>Asset 37</title><g id="Layer_2" data-name="Layer 2"><g id="Layer_1-2" data-name="Layer 1"><path class="cls-1" d="M0,86.82C0,39.11,39,.07,86.76,0s86.65,38.82,86.83,86.74c.17,47.57-39,86.77-86.75,86.85C39.22,173.66,0,134.49,0,86.82Zm12.26.07c.25,41.25,33.82,74.67,74.7,74.4,41.19-.27,74.55-33.81,74.35-74.62a74.53,74.53,0,0,0-149,.22Z"/><path class="cls-1" d="M101.8,86.29c-.42-.44-.78-.83-1.16-1.21L67.09,51.55c-2.64-2.65-2.79-6.24-.41-8.84a6,6,0,0,1,8-.72,11.32,11.32,0,0,1,1.09,1Q95,62.2,114.24,81.41c1.79,1.78,2.93,3.77,2.18,6.31a7.32,7.32,0,0,1-1.72,3q-19.47,19.59-39,39.09c-2.45,2.45-5.64,2.74-8.13.89A6,6,0,0,1,65.73,123a10.47,10.47,0,0,1,1.84-2.27q16.52-16.61,33.07-33.18C101,87.12,101.38,86.72,101.8,86.29Z"/></g></g></svg>