<svg xmlns="http://www.w3.org/2000/svg" viewBox="0 0 72.72 56.92"><defs><style>.cls-1{fill:#fff;}</style></defs><title>biblioteca</title><g id="Layer_2" data-name="Layer 2"><g id="Layer_1-2" data-name="Layer 1"><path class="cls-1" d="M10.86,0c1.83,0,3.66,0,5.49,0,3.16.05,4.77,1.54,4.9,4.69.1,2.16.09,4.32,0,6.48-.12,3.05-1.61,4.64-4.65,4.74q-6,.18-12,0c-2.82-.1-4.15-1.37-4.42-4.1A34.61,34.61,0,0,1,.3,3.62,3.85,3.85,0,0,1,4.37,0C6.53,0,8.7,0,10.86,0Z"/><path class="cls-1" d="M62.19,0C64.1,0,66,0,67.92,0c2.92.06,4.29,1.21,4.54,4.16a47.63,47.63,0,0,1,.07,7.46c-.2,2.88-1.58,4.18-4.5,4.28-4,.13-8,.14-12,0-3-.1-4.47-1.72-4.58-4.79-.08-2.08-.07-4.16,0-6.23.11-3.3,1.7-4.84,5-4.88C58.36,0,60.27,0,62.19,0Z"/><path class="cls-1" d="M10.4,36.45c-1.91,0-3.82,0-5.73,0C2,36.36.63,35.21.28,32.64a31.62,31.62,0,0,1,0-8.19C.58,21.88,2,20.6,4.6,20.54c4.07-.11,8.15-.12,12.22,0a4.12,4.12,0,0,1,4.38,4.19,54.92,54.92,0,0,1,0,7.48c-.17,2.73-1.81,4.16-4.58,4.23C14.56,36.5,12.48,36.45,10.4,36.45Z"/><path class="cls-1" d="M10.62,56.91c-2.16,0-4.32,0-6.49,0A3.6,3.6,0,0,1,.36,53.65,34.62,34.62,0,0,1,.2,45.2a4,4,0,0,1,4.2-4.05c4.14-.14,8.31-.2,12.45,0,3,.14,4.29,1.69,4.41,4.68.09,2.24.1,4.5,0,6.73-.14,2.87-1.75,4.31-4.65,4.35C14.61,56.93,12.61,56.91,10.62,56.91Z"/><path class="cls-1" d="M62.05,56.91c-2,0-4,0-6,0-2.78,0-4.41-1.43-4.57-4.17a62.11,62.11,0,0,1,0-7.22c.15-2.83,1.64-4.29,4.71-4.42q5.85-.23,11.71,0c3.17.12,4.51,1.51,4.68,4.67A48.22,48.22,0,0,1,72.48,53c-.26,2.79-1.65,3.89-4.45,3.93C66,56.93,64,56.91,62.05,56.91Z"/><path class="cls-1" d="M62,36.45c-1.91,0-3.83,0-5.74,0-3-.07-4.6-1.59-4.73-4.61-.1-2.24-.11-4.5,0-6.73.14-2.89,1.69-4.49,4.56-4.56,4-.11,8-.1,12,0,2.77.06,4.07,1.32,4.45,4a33.14,33.14,0,0,1,.06,7.71c-.28,2.86-1.73,4.09-4.6,4.15C65.94,36.49,63.94,36.45,62,36.45Z"/><path class="cls-1" d="M36.19,36.45c-1.91,0-3.82,0-5.73,0-2.86-.07-4.39-1.37-4.58-4.18a58.19,58.19,0,0,1,0-7.47,4.13,4.13,0,0,1,4.32-4.25c4.07-.12,8.15-.11,12.21,0a4.21,4.21,0,0,1,4.48,4.37,62.11,62.11,0,0,1,0,7.22c-.17,2.94-1.7,4.27-4.7,4.32C40.18,36.48,38.18,36.45,36.19,36.45Z"/><path class="cls-1" d="M36.34,56.91c-2,0-4,0-6,0-2.75,0-4.28-1.27-4.46-3.94a60.26,60.26,0,0,1,0-7.72c.17-2.62,1.59-4,4.4-4.12,4.06-.16,8.14-.17,12.2,0,3,.13,4.28,1.68,4.4,4.67.08,2.24.1,4.49,0,6.72-.15,3-1.63,4.35-4.57,4.38C40.33,56.93,38.33,56.91,36.34,56.91Z"/><path class="cls-1" d="M36.27,16c-1.83,0-3.66,0-5.48,0-3.36-.12-4.87-1.61-5-4.93-.06-2.15-.1-4.32,0-6.47C26,1.51,27.57.05,30.61,0c3.82,0,7.65,0,11.47,0,3.14,0,4.7,1.53,4.82,4.72.08,2.16.09,4.32,0,6.48-.12,3.06-1.58,4.49-4.65,4.72a4.18,4.18,0,0,1-.5,0Z"/></g></g></svg>