<svg xmlns="http://www.w3.org/2000/svg" viewBox="0 0 71.99 56.45"><defs><style>.cls-1{fill:#fff;}</style></defs><title>dash</title><g id="Layer_2" data-name="Layer 2"><g id="Layer_1-2" data-name="Layer 1"><path class="cls-1" d="M36,56.4c-9,0-18,0-27,0a3.85,3.85,0,0,1-3.84-2.15c-6.71-12.21-7.07-24.55,0-36.56C12.53,5.31,23.89-.49,38.19,0,55,.65,69.39,14.16,71.64,30.72A36.75,36.75,0,0,1,67.4,53.59a4.65,4.65,0,0,1-4.69,2.86C53.8,56.32,44.89,56.4,36,56.4ZM28.46,43.58A8,8,0,0,0,29,46.5a7.32,7.32,0,0,0,7,4.79A7.1,7.1,0,0,0,43,47a7.19,7.19,0,0,0-1.11-8.37A3.35,3.35,0,0,1,41,34.9c1.13-3.91,2-7.88,3.13-11.8.52-1.87.69-3.65-1.61-4.21s-3,1.23-3.43,3c-1,3.94-2.07,7.87-3.07,11.81a3.13,3.13,0,0,1-2.41,2.72A7.14,7.14,0,0,0,28.46,43.58ZM41.13,10.34a5,5,0,1,0-5.15,5A5.1,5.1,0,0,0,41.13,10.34ZM61.68,40.92A5.1,5.1,0,0,0,66.92,36a5.14,5.14,0,0,0-10.27-.2A5.09,5.09,0,0,0,61.68,40.92Zm-38.54-23a5,5,0,1,0-10.08,0,4.91,4.91,0,0,0,5,5A4.9,4.9,0,0,0,23.14,17.91Zm36,.07A5,5,0,1,0,49,17.85,5,5,0,0,0,59.11,18Zm-48.76,23a5.09,5.09,0,0,0,5.17-5,5.24,5.24,0,0,0-5.09-5.13,5.22,5.22,0,0,0-5.17,5A5.14,5.14,0,0,0,10.35,40.93Z"/></g></g></svg>