<svg xmlns="http://www.w3.org/2000/svg" viewBox="0 0 81.95 56.25"><defs><style>.cls-1{fill:#fff;}</style></defs><title>historial</title><g id="Layer_2" data-name="Layer 2"><g id="Layer_1-2" data-name="Layer 1"><path class="cls-1" d="M46.22.06c11.11,0,22.23,0,33.35,0C81.4,0,82,.47,82,2.36c-.08,15.22,0,30.45-.06,45.67,0,5.21-3,8.2-8.17,8.2q-32.73,0-65.45,0c-5.18,0-8.2-3-8.21-8.16C0,34.5.09,20.92,0,7.36,0,5.41.64,4.94,2.42,5.07S6.24,5,8.14,5.13c1.7.12,2.29-.58,2-2.14-.42-2.41.56-3,3-3C24.15.14,35.18.06,46.22.06Zm.06,5c-9.55,0-19.1,0-28.64,0-1.75,0-2.26.52-2.24,2.24q.12,12.3,0,24.6c-.06,6,.36,11.92-.27,17.86-.15,1.42.58,1.45,1.59,1.44q28.4,0,56.79,0c2.44,0,3.29-1,3.3-3.63,0-13.42,0-26.83,0-40.25,0-2-.75-2.25-2.46-2.24C65,5.14,55.66,5.1,46.28,5.1ZM5.1,29.65q0,9.06,0,18.12c0,1.79.62,3.28,2.57,3.27s2.51-1.48,2.51-3.29c0-11.83-.07-23.65,0-35.48,0-2.18-1.08-2.12-2.61-2.13s-2.62,0-2.56,2.15C5.2,18.07,5.1,23.87,5.1,29.65Z"/><path class="cls-1" d="M20.51,22.7c0-3.56,0-7.12,0-10.67,0-1.37.36-1.9,1.81-1.89q11,.09,21.91,0c1.44,0,1.85.5,1.84,1.88q-.07,11.06,0,22.1c0,1.27-.39,1.75-1.71,1.74q-11.07-.07-22.16,0c-1.32,0-1.71-.47-1.69-1.73C20.55,30.32,20.51,26.51,20.51,22.7Zm12.86-7.28c-2,0-4,.07-6,0-1.38-.06-1.9.38-1.87,1.82.08,3.88.07,7.76,0,11.64,0,1.36.39,1.95,1.83,1.93q6-.09,11.92,0c1.32,0,1.72-.46,1.7-1.73-.06-3.72-.16-7.44,0-11.15.11-2.18-.69-2.71-2.68-2.52C36.7,15.55,35,15.42,33.37,15.42Z"/><path class="cls-1" d="M33.24,40.88c3.57,0,7.15.1,10.71,0,1.92-.08,2.23.78,2.09,2.35-.12,1.32.48,2.83-1.93,2.79q-10.83-.18-21.66,0c-2.4,0-1.85-1.42-1.95-2.75-.11-1.51.05-2.49,2-2.4C26.1,41,29.67,40.88,33.24,40.88Z"/><path class="cls-1" d="M61.64,15.44c-2.9,0-5.8-.09-8.68,0-2.21.09-1.84-1.37-1.83-2.64s-.43-2.73,1.78-2.7c5.71.08,11.41.1,17.12,0,2.27,0,1.76,1.45,1.74,2.66s.61,2.79-1.7,2.69C67.26,15.35,64.45,15.44,61.64,15.44Z"/><path class="cls-1" d="M61.83,20.47c2.73,0,5.47.11,8.19,0,2-.11,1.82,1.16,1.74,2.39s.63,2.75-1.69,2.71c-5.71-.09-11.42-.08-17.13,0-2.12,0-1.63-1.41-1.6-2.54s-.63-2.62,1.55-2.55C55.87,20.54,58.85,20.47,61.83,20.47Z"/><path class="cls-1" d="M61.57,30.77c2.73,0,5.47.14,8.18,0,2.29-.14,2,1.25,2,2.67s.15,2.53-2,2.48q-8.31-.21-16.63,0c-2.17.06-1.93-1.19-1.9-2.52s-.39-2.72,1.82-2.62C55.94,30.88,58.76,30.78,61.57,30.77Z"/><path class="cls-1" d="M61.64,40.88c2.81,0,5.63.09,8.44,0,2.09-.09,1.71,1.28,1.69,2.46S72.28,46,70,46c-5.62-.1-11.25-.11-16.87,0-2.19,0-1.82-1.33-1.83-2.61s-.29-2.66,1.9-2.53C56,41,58.83,40.88,61.64,40.88Z"/></g></g></svg>