<svg xmlns="http://www.w3.org/2000/svg" viewBox="0 0 77.73 62.28"><defs><style>.cls-1{fill:#fff;}</style></defs><title>materiales</title><g id="Layer_2" data-name="Layer 2"><g id="Layer_1-2" data-name="Layer 1"><path class="cls-1" d="M38.92,0Q54.54,0,70.13,0c4.94,0,7.59,2.62,7.59,7.51q0,23.58,0,47.18c0,4.83-2.73,7.56-7.61,7.57q-31.22,0-62.42,0c-4.77,0-7.58-2.55-7.61-7.34Q-.07,31.09.09,7.24C.12,2.39,2.88,0,7.71,0Zm0,56.45c10.15,0,20.3,0,30.46,0,1.87,0,2.65-.4,2.64-2.48Q71.9,31,72,8.08c0-2-.75-2.58-2.65-2.57Q39,5.57,8.68,5.51c-2,0-3,.59-2.94,2.86q.12,22.71,0,45.43c0,2.08.64,2.71,2.71,2.69C18.61,56.4,28.76,56.45,38.92,56.45Z"/><path class="cls-1" d="M38.89,51.93c-8.66,0-17.31-.06-26,0-2,0-2.36-.61-2.53-2.52-.36-4,.71-7.13,4-9.75A84.8,84.8,0,0,0,22.16,32c1-1,1.72-1.19,2.58,0a1.53,1.53,0,0,0,.18.18c1.75,1.49,3.1,4.57,5.08,4.33S33.42,33.6,35.07,32c4.61-4.57,9.23-9.14,13.76-13.78,1.17-1.2,1.9-1.41,3.17-.1,4.63,4.78,9.37,9.46,14.11,14.14a3.91,3.91,0,0,1,1.32,3.05c-.07,4.83-.1,9.66,0,14.48,0,1.84-.67,2.21-2.33,2.2C56.37,51.89,47.63,51.93,38.89,51.93Z"/><path class="cls-1" d="M10.48,18.28a7.61,7.61,0,0,1,7.82-7.9,7.62,7.62,0,0,1,7.91,7.83,7.87,7.87,0,1,1-15.73.07Z"/></g></g></svg>