<svg xmlns="http://www.w3.org/2000/svg" viewBox="0 0 82.45 61.7"><defs><style>.cls-1{fill:#fff;}</style></defs><title>metricas</title><g id="Layer_2" data-name="Layer 2"><g id="Layer_1-2" data-name="Layer 1"><path class="cls-1" d="M41.09,61.64c-12.82,0-25.64,0-38.46,0C.55,61.7,0,61.14,0,59.06Q.12,30.85,0,2.63C0,.51.61,0,2.64,0,4.87,0,5.16.79,5.16,2.74c-.08,17.06,0,34.12-.11,51.18,0,2.3.67,2.7,2.79,2.69q35.83-.11,71.67,0A2.94,2.94,0,0,1,82,61.06c-.53,1-1.48.56-2.24.56Q60.44,61.67,41.09,61.64Z"/><path class="cls-1" d="M61.61,28.09c0-6.9,0-13.81,0-20.72,0-1.71.41-2.38,2.21-2.26a63.85,63.85,0,0,0,6.49,0c1.27,0,1.75.36,1.75,1.69Q72,28.28,72,49.76c0,1.52-.64,1.8-2,1.76a59,59,0,0,0-6.24,0c-1.73.11-2.29-.45-2.26-2.22C61.66,42.24,61.61,35.16,61.61,28.09Z"/><path class="cls-1" d="M41.09,30.93c0,6.15-.05,12.31,0,18.46,0,1.62-.41,2.24-2.09,2.14a60.89,60.89,0,0,0-6.48,0c-1.44.07-1.86-.48-1.85-1.87q.06-18.84,0-37.68c0-1.28.39-1.8,1.72-1.75,2.24.07,4.49.1,6.73,0,1.57-.08,2,.51,2,2C41.05,18.45,41.09,24.69,41.09,30.93Z"/><path class="cls-1" d="M46.16,36.09c0-4.49.07-9,0-13.45,0-1.66.51-2.18,2.13-2.07,2.64.16,6.08-.84,7.72.47s.51,5,.54,7.59c.09,6.89,0,13.78.07,20.67,0,1.76-.5,2.35-2.25,2.23a51.63,51.63,0,0,0-6.22,0c-1.53.08-2-.46-2-2C46.22,45.05,46.16,40.57,46.16,36.09Z"/><path class="cls-1" d="M25.64,41.1c0,2.67-.14,5.34.05,8,.14,2.08-.68,2.58-2.56,2.43a41.91,41.91,0,0,0-5.49,0c-1.56.09-2.22-.33-2.19-2,.1-5.49.07-11,0-16.47,0-1.45.34-2.15,1.94-2.06a51.8,51.8,0,0,0,6.23,0c1.75-.11,2.09.67,2,2.2C25.57,35.78,25.64,38.44,25.64,41.1Z"/></g></g></svg>