<svg xmlns="http://www.w3.org/2000/svg" viewBox="0 0 66.88 72.14"><defs><style>.cls-1{fill:#fff;}</style></defs><title>parrilla</title><g id="Layer_2" data-name="Layer 2"><g id="Layer_1-2" data-name="Layer 1"><path class="cls-1" d="M59.48,10.42c-2.74.12-3.1-.9-3-3.24C56.57,2.73,54.07.25,49.63,0,43.9-.27,41,2.32,41.1,8.08c0,2-.65,2.38-2.44,2.3a90.23,90.23,0,0,0-9.73,0c-2.46.16-3.27-.48-3.22-3.09C25.8,2.49,23.08.08,18.18,0c-5.09-.06-8,2.32-7.9,7.16,0,2.71-.83,3.31-3.35,3.22C1.8,10.23,0,12.14,0,17.24V65.18c0,5,1.88,6.95,6.9,7q13.23,0,26.47,0H59.59c5.48,0,7.29-1.83,7.29-7.37V17.82C66.88,12.07,65.18,10.18,59.48,10.42ZM16.94,65.8h-12v-12h12Zm0-14.5h-12v-12h12Zm0-14.5h-12v-12h12Zm1-17.43c-1.59,0-2.52-.4-2.48-2.22.07-3.22.07-6.45,0-9.67,0-1.83.9-2.2,2.48-2.22s2.72.39,2.61,2.34c-.1,1.57,0,3.15,0,4.72s-.08,3.14,0,4.71C20.65,19,19.61,19.38,17.93,19.37Zm14,46.43h-12v-12h12Zm0-14.5h-12v-12h12Zm0-14.5h-12v-12h12Zm15,29h-12v-12h12Zm0-14.5h-12v-12h12Zm0-14.5h-12v-12h12Zm-.62-19.74q.12-4.74,0-9.48c0-1.75.72-2.33,2.4-2.33s2.77.38,2.71,2.32c0,1.58,0,3.16,0,4.74s0,3.16,0,4.74c.06,1.94-1,2.33-2.7,2.33S46.28,18.81,46.32,17.06ZM61.94,65.8h-12v-12h12Zm0-14.5h-12v-12h12Zm0-14.5h-12v-12h12Z"/></g></g></svg>