<svg xmlns="http://www.w3.org/2000/svg" viewBox="0 0 667.21 63.92"><defs><style>.cls-1{fill:#1f3a93;}</style></defs><title>ic</title><g id="Layer_2" data-name="Layer 2"><g id="Layer_1-2" data-name="Layer 1"><path class="cls-1" d="M0,23.43l11.47-4.35q21-7.93,41.93-15.86a2.47,2.47,0,0,1,1.61,0Q81.17,13.07,107.31,23c.31.11.6.25,1.13.47l-1.87.73Q80.79,33.94,55,43.64a2.44,2.44,0,0,1-1.6,0Q27.23,33.78,1.08,23.89Z"/><path class="cls-1" d="M88,33.75v3c0,3.73,0,7.46,0,11.19a5.2,5.2,0,0,1-1.89,4.19,28.82,28.82,0,0,1-10.67,5.54,69.91,69.91,0,0,1-27.12,2.94A60.26,60.26,0,0,1,28.64,56c-2.71-1.19-5.37-2.53-7.23-4.94a4.46,4.46,0,0,1-.9-2.4c-.08-4.79,0-9.57,0-14.35a3.76,3.76,0,0,1,.08-.5l2.5.92c9.86,3.73,19.73,7.44,29.58,11.2a4.2,4.2,0,0,0,3.23,0q15.49-5.88,31-11.72Z"/><path class="cls-1" d="M5.94,23.63l4.81,2s0,25.43,0,27.77a1.76,1.76,0,0,0,.49,1.07A2.25,2.25,0,0,1,10.81,58a4.72,4.72,0,0,1-4.84,0,2.28,2.28,0,0,1-.51-3.64,1.62,1.62,0,0,0,.46-1C6,50.45,5.94,23.63,5.94,23.63Z"/><path class="cls-1" d="M166.88,63.07H153.72V11.93H136.86V1h46.88v11H166.88Z"/><path class="cls-1" d="M244.71,1V41.15a23.23,23.23,0,0,1-3.08,12.07,20,20,0,0,1-8.9,7.94A31.81,31.81,0,0,1,219,63.92q-12,0-18.6-6.14T193.74,41V1h13.13V39c0,4.79,1,8.29,2.88,10.53s5.11,3.36,9.56,3.36,7.43-1.13,9.37-3.38,2.9-5.78,2.9-10.6V1Z"/><path class="cls-1" d="M284.74,63.07H271.57V11.93H254.71V1H301.6v11H284.74Z"/><path class="cls-1" d="M368.38,31.94q0,15.42-7.64,23.7t-21.92,8.28q-14.26,0-21.91-8.28t-7.65-23.79q0-15.5,7.67-23.68t22-8.17q14.31,0,21.9,8.24T368.38,31.94Zm-45.31,0q0,10.39,3.95,15.67t11.8,5.27q15.76,0,15.76-20.94T338.91,11q-7.86,0-11.85,5.28T323.07,31.94Z"/><path class="cls-1" d="M395.29,39.24V63.07H382.12V1h18.09q12.66,0,18.73,4.61t6.08,14a16.45,16.45,0,0,1-3,9.74,19.86,19.86,0,0,1-8.54,6.7q14,20.94,18.27,27.05H417.12L402.29,39.24Zm0-10.7h4.24q6.25,0,9.22-2.08t3-6.54q0-4.41-3-6.29c-2-1.24-5.15-1.87-9.4-1.87h-4Z"/><path class="cls-1" d="M440.42,63.07V1h13.16V63.07Z"/><path class="cls-1" d="M508.09,63.07l-4.5-14.78H481l-4.5,14.78H462.26L484.18.72h16.1l22,62.35Zm-7.64-25.82q-6.26-20.08-7-22.72c-.52-1.76-.89-3.15-1.12-4.17q-1.4,5.45-8,26.89Z"/><path class="cls-1" d="M531,63.07V1h13.17V52.2h25.19V63.07Z"/><path class="cls-1" d="M616.73,63.07H581V1h35.76V11.76H594.14V25.4h21V36.19h-21v16h22.59Z"/><path class="cls-1" d="M667.21,45.83q0,8.4-6.05,13.25t-16.85,4.84a39.45,39.45,0,0,1-17.58-3.74V48a71.88,71.88,0,0,0,10.64,3.95,31.7,31.7,0,0,0,8,1.15A11.35,11.35,0,0,0,652,51.39a5.68,5.68,0,0,0,2.32-4.93,5.39,5.39,0,0,0-1-3.24,11.24,11.24,0,0,0-3-2.74,75.54,75.54,0,0,0-8-4.21,37.81,37.81,0,0,1-8.53-5.14,19.34,19.34,0,0,1-4.55-5.73,16.4,16.4,0,0,1-1.7-7.65q0-8.23,5.59-12.95T648.48.08a36.58,36.58,0,0,1,9.23,1.15,63.54,63.54,0,0,1,9.2,3.23L662.66,14.7a62.54,62.54,0,0,0-8.21-2.85,26.48,26.48,0,0,0-6.4-.81,8.51,8.51,0,0,0-5.73,1.74,5.76,5.76,0,0,0-2,4.55,5.64,5.64,0,0,0,.81,3,8.78,8.78,0,0,0,2.57,2.5A78.1,78.1,0,0,0,652,27.22q8.72,4.17,11.94,8.35A16.31,16.31,0,0,1,667.21,45.83Z"/></g></g></svg>