<svg xmlns="http://www.w3.org/2000/svg" viewBox="0 0 165.1 165.32"><defs><style>.cls-1{fill:#fff;}</style></defs><title>Asset 34</title><g id="Layer_2" data-name="Layer 2"><g id="Layer_1-2" data-name="Layer 1"><g id="Layer_2-2" data-name="Layer 2"><g id="Layer_1-2-2" data-name="Layer 1-2"><path class="cls-1" d="M0,82.66a82.55,82.55,0,1,1,81.75,82.66C36.79,165,0,128,0,82.66Zm106.38,38.79c.55-.86.88-1.29,1.12-1.76q5-10,10-20.08,13.92-28.11,27.83-56.25a1.91,1.91,0,0,0-.1-2.21A76.7,76.7,0,0,0,119.4,16.86c-1-.58-1.38-.28-1.78.66-1,2.42-2.14,4.8-3.22,7.2q-11.59,26-23.17,52.07a3,3,0,0,1-3.17,2c-3.58-.06-7.18-.08-10.76,0a3.36,3.36,0,0,1-3.57-2.33q-13-29.39-26.16-58.7c-.21-.48-.49-.94-.73-1.38a3.31,3.31,0,0,0-.61.19A74.77,74.77,0,0,0,19.67,41.34a2.45,2.45,0,0,0,0,2c3.76,7.67,7.6,15.3,11.4,22.94q13.22,26.57,26.4,53.11c.3.6.71,1.13,1.26,2a20.88,20.88,0,0,0,1.14-2q7-16,14-31.94a3.08,3.08,0,0,1,3.34-2.19c3.59.11,7.18.1,10.77,0a3.11,3.11,0,0,1,3.34,2.18q6.88,15.93,13.89,31.81C105.44,119.92,105.84,120.5,106.38,121.45Zm46.05-65.84c-.25.45-.48.84-.67,1.23Q132,97.12,112.18,137.36c-1.24,2.53-2.46,5.1-3.88,7.54a2.37,2.37,0,0,1-4.15.18,11.42,11.42,0,0,1-1.29-2.38q-9.58-21.78-19.14-43.56a8.38,8.38,0,0,0-1.13-1.51,7.08,7.08,0,0,0-1.13,1.48Q73,118.24,64.6,137.39c-1.06,2.41-2,4.85-3.26,7.18-1.11,2.13-3.41,2.14-4.72.13a17.92,17.92,0,0,1-.95-1.72q-6.78-13.83-13.52-27.64Q28.83,88.25,15.51,61.2c-.9-1.87-1.86-3.73-2.87-5.75-10.38,24.16-6.91,61.42,22.45,85.7a74.44,74.44,0,0,0,98.79-3.41C160.76,112.32,161.81,77,152.43,55.61Zm-95-44.17,2.87,6.4Q70.86,41.5,81.46,65.14a7,7,0,0,0,1.07,1.35,7.33,7.33,0,0,0,1.16-1.43q11.44-25.48,22.83-51c.36-.81.68-1.65,1.1-2.66A75.36,75.36,0,0,0,57.43,11.44Z"/></g></g></g></g></svg>