<svg xmlns="http://www.w3.org/2000/svg" viewBox="0 0 772.23 136.76"><defs><style>.cls-1{fill:#fff;}</style></defs><title>Asset 35</title><g id="Layer_2" data-name="Layer 2"><g id="Layer_1-2" data-name="Layer 1"><path class="cls-1" d="M44.37,111.29a8,8,0,0,0-3.11-6.55,34.4,34.4,0,0,0-7.81-4.6q-4.71-2.08-10.2-4.29a52.78,52.78,0,0,1-10.2-5.42,28.15,28.15,0,0,1-7.82-8Q2.13,77.64,2.12,70.2A25.72,25.72,0,0,1,4.37,59a21,21,0,0,1,6.43-7.88,28.22,28.22,0,0,1,9.86-4.66A49.52,49.52,0,0,1,33.38,45a83,83,0,0,1,15.23,1.33A40,40,0,0,1,60.4,50.15l-5.69,14.5A32.93,32.93,0,0,0,46,61.43,52.31,52.31,0,0,0,33.38,60c-4.24,0-7.48.81-9.74,2.4a7.5,7.5,0,0,0-3.37,6.43,7.77,7.77,0,0,0,3.11,6.3,36,36,0,0,0,7.81,4.67q4.71,2.14,10.2,4.41a55.28,55.28,0,0,1,10.2,5.48,28.59,28.59,0,0,1,7.82,8,21,21,0,0,1,3.11,11.78,28,28,0,0,1-2.45,12.17,23.12,23.12,0,0,1-6.89,8.5,29.63,29.63,0,0,1-10.73,5.05,55,55,0,0,1-13.84,1.64A77.07,77.07,0,0,1,11.13,135,54.53,54.53,0,0,1,0,131.46l5.83-14.75a36.24,36.24,0,0,0,3.77,1.64A51.23,51.23,0,0,0,14.84,120q2.91.75,6.15,1.26a43.16,43.16,0,0,0,6.69.51q8.09,0,12.39-2.59A8.57,8.57,0,0,0,44.37,111.29Z"/><path class="cls-1" d="M77,103.48q0-16,8.21-24.65t23-8.63A36.19,36.19,0,0,1,122,72.59a25.7,25.7,0,0,1,9.67,6.75,28.44,28.44,0,0,1,5.77,10.52,45.74,45.74,0,0,1,1.92,13.62q0,16-8.15,24.64t-23,8.64a36.08,36.08,0,0,1-13.78-2.4,26.31,26.31,0,0,1-9.73-6.74,27.83,27.83,0,0,1-5.83-10.53A45.68,45.68,0,0,1,77,103.48Zm17.75,0a35.07,35.07,0,0,0,.79,7.69,20.73,20.73,0,0,0,2.39,6.17,11.23,11.23,0,0,0,4.17,4.1,12.36,12.36,0,0,0,6.16,1.45q6.75,0,10.07-4.66t3.31-14.75q0-8.7-3-14.06t-10.33-5.36a11.94,11.94,0,0,0-9.93,4.54Q94.71,93.15,94.71,103.48Z"/><path class="cls-1" d="M204.12,131.08a29.51,29.51,0,0,1-9.61,4.23,46.53,46.53,0,0,1-11.59,1.45,33.55,33.55,0,0,1-13.44-2.4,22.77,22.77,0,0,1-8.94-6.74,27.21,27.21,0,0,1-5-10.53,57.1,57.1,0,0,1-1.52-13.61q0-16,7.55-24.65t22-8.63a48.8,48.8,0,0,1,11.72,1.13,40.9,40.9,0,0,1,8,2.9l-4.1,13.36a36.05,36.05,0,0,0-6-2.14,28,28,0,0,0-6.82-.76q-7.16,0-10.86,4.48t-3.71,14.31a28,28,0,0,0,.93,7.43,17.56,17.56,0,0,0,2.78,5.93,12.83,12.83,0,0,0,4.83,4,15.71,15.71,0,0,0,7,1.45,22.58,22.58,0,0,0,7.41-1.07,26.79,26.79,0,0,0,5.43-2.59Z"/><rect class="cls-1" x="222.57" y="71.96" width="17.22" height="63.03"/><path class="cls-1" d="M261.74,75.62A58.69,58.69,0,0,1,274.32,72a85.39,85.39,0,0,1,15.23-1.32,36.26,36.26,0,0,1,11.53,1.58,17.62,17.62,0,0,1,7.35,4.47,16.51,16.51,0,0,1,3.84,6.93,33.88,33.88,0,0,1,1.13,9.08c0,3.7-.14,7.42-.4,11.16s-.42,7.41-.46,11,.06,7.12.33,10.52a37.76,37.76,0,0,0,2,9.65h-14l-2.78-8.7h-.66a23.22,23.22,0,0,1-7.35,6.74Q285.31,136,277.9,136a24.8,24.8,0,0,1-8.35-1.32,18.4,18.4,0,0,1-6.36-3.79,17.15,17.15,0,0,1-4.1-5.8,18.55,18.55,0,0,1-1.46-7.5,16.92,16.92,0,0,1,2.72-9.77,19.42,19.42,0,0,1,7.81-6.42A40.24,40.24,0,0,1,280.35,98a90,90,0,0,1,15.83-.56q.92-7.07-1.06-10.15t-8.88-3.09a63.66,63.66,0,0,0-10.92,1,41.45,41.45,0,0,0-9.48,2.64Zm21.85,46.89a13.76,13.76,0,0,0,8.22-2.2,15.79,15.79,0,0,0,4.5-4.73v-8.2a49.75,49.75,0,0,0-7.88-.12,30,30,0,0,0-6.69,1.13,11.49,11.49,0,0,0-4.64,2.52,5.5,5.5,0,0,0-1.72,4.16,7,7,0,0,0,2.19,5.49A8.7,8.7,0,0,0,283.59,122.51Z"/><path class="cls-1" d="M351.54,113.81c0,2.94.4,5.09,1.19,6.43a4.13,4.13,0,0,0,3.85,2,18.83,18.83,0,0,0,3.11-.25,19.67,19.67,0,0,0,3.77-1.14l1.86,12.86a34.75,34.75,0,0,1-6.49,2,40.14,40.14,0,0,1-9,1q-7.54,0-11.52-3.34t-4-11V46.75h17.22Z"/><path class="cls-1" d="M379.09,46.75c1.86-.25,4-.46,6.29-.63s4.75-.3,7.22-.38,4.88-.14,7.22-.19,4.44-.06,6.29-.06q12.33,0,21.07,3.28A35.92,35.92,0,0,1,441.35,58a36.45,36.45,0,0,1,7.95,14.12,61.41,61.41,0,0,1,2.51,18,62.31,62.31,0,0,1-2.38,17.27,38.37,38.37,0,0,1-7.95,14.75,39.79,39.79,0,0,1-14.64,10.34q-9.06,3.9-22.45,3.91c-1.41,0-3.29,0-5.63-.13s-4.77-.19-7.28-.31l-7.22-.38c-2.3-.13-4-.28-5.17-.44Zm28.48,14.12c-1.94,0-3.91,0-5.89.12a41,41,0,0,0-4.44.38v59.12a10.24,10.24,0,0,0,1.79.19l2.71.13,2.78.12c.89,0,1.55.07,2,.07a28,28,0,0,0,12.78-2.59,21.29,21.29,0,0,0,8.08-6.87,26.89,26.89,0,0,0,4.18-9.89,55.71,55.71,0,0,0,1.19-11.54,52.82,52.82,0,0,0-1.06-10.4,25.4,25.4,0,0,0-3.91-9.39A21.73,21.73,0,0,0,420,63.51Q415.12,60.87,407.57,60.87Z"/><path class="cls-1" d="M523.34,129.57a34.41,34.41,0,0,1-10.8,5.11,49.69,49.69,0,0,1-14.5,2.08q-16,0-23.45-8.89t-7.41-24.39q0-16.65,8.34-25T499,70.2a38.23,38.23,0,0,1,9.8,1.26,23.19,23.19,0,0,1,8.48,4.16,20.6,20.6,0,0,1,6,7.81,29.4,29.4,0,0,1,2.25,12.23,52.26,52.26,0,0,1-.33,5.67c-.22,2-.56,4.12-1,6.31H484.4q.39,7.94,4.3,12t12.65,4a28.23,28.23,0,0,0,9.74-1.58,27.05,27.05,0,0,0,6.55-3.22ZM498.7,83.31q-6.75,0-10,3.84a18.51,18.51,0,0,0-3.91,10.28h24.64Q510,90.62,507.25,87C505.43,84.53,502.59,83.31,498.7,83.31Z"/><path class="cls-1" d="M543.21,75.62A58.69,58.69,0,0,1,555.79,72,85.39,85.39,0,0,1,571,70.7a36.26,36.26,0,0,1,11.53,1.58,17.62,17.62,0,0,1,7.35,4.47,16.51,16.51,0,0,1,3.84,6.93,33.88,33.88,0,0,1,1.13,9.08c0,3.7-.14,7.42-.4,11.16s-.42,7.41-.46,11,.06,7.12.33,10.52a37.76,37.76,0,0,0,2,9.65h-14l-2.78-8.7h-.66a23.22,23.22,0,0,1-7.35,6.74Q566.78,136,559.37,136a24.8,24.8,0,0,1-8.35-1.32,18.4,18.4,0,0,1-6.36-3.79,17.15,17.15,0,0,1-4.1-5.8,18.55,18.55,0,0,1-1.46-7.5,16.92,16.92,0,0,1,2.72-9.77,19.42,19.42,0,0,1,7.81-6.42A40.24,40.24,0,0,1,561.82,98a90,90,0,0,1,15.83-.56q.92-7.07-1.06-10.15t-8.88-3.09a63.66,63.66,0,0,0-10.92,1,41.6,41.6,0,0,0-9.48,2.64Zm21.85,46.89a13.76,13.76,0,0,0,8.22-2.2,15.79,15.79,0,0,0,4.5-4.73v-8.2a49.75,49.75,0,0,0-7.88-.12,30,30,0,0,0-6.69,1.13,11.49,11.49,0,0,0-4.64,2.52,5.5,5.5,0,0,0-1.72,4.16,7,7,0,0,0,2.19,5.49A8.7,8.7,0,0,0,565.06,122.51Z"/><path class="cls-1" d="M633,113.81c0,2.94.4,5.09,1.19,6.43a4.13,4.13,0,0,0,3.85,2,18.83,18.83,0,0,0,3.11-.25,19.67,19.67,0,0,0,3.77-1.14l1.86,12.86a34.75,34.75,0,0,1-6.49,2,40.14,40.14,0,0,1-9,1q-7.54,0-11.52-3.34t-4-11V46.75H633Z"/><path class="cls-1" d="M713.15,129.57a34.41,34.41,0,0,1-10.8,5.11,49.69,49.69,0,0,1-14.5,2.08q-16,0-23.44-8.89T657,103.48q0-16.65,8.34-25t23.45-8.32a38.23,38.23,0,0,1,9.8,1.26,23.19,23.19,0,0,1,8.48,4.16,20.6,20.6,0,0,1,6,7.81,29.4,29.4,0,0,1,2.25,12.23,52.26,52.26,0,0,1-.33,5.67q-.33,3-1,6.31H674.21q.39,7.94,4.3,12t12.65,4a28.23,28.23,0,0,0,9.74-1.58,27.05,27.05,0,0,0,6.55-3.22ZM688.51,83.31q-6.75,0-10,3.84a18.58,18.58,0,0,0-3.91,10.28h24.64q.53-6.81-2.18-10.47C695.24,84.53,692.4,83.31,688.51,83.31Z"/><path class="cls-1" d="M770,87.34A23.53,23.53,0,0,0,762.56,86a12.52,12.52,0,0,0-7.75,2.34,11.14,11.14,0,0,0-4.17,6V135H733.42V72h13.37l2,8.32h.53a17.45,17.45,0,0,1,6.09-7.19,16.14,16.14,0,0,1,9-2.52A26.39,26.39,0,0,1,772.23,72Z"/><path class="cls-1" d="M228.8,45.84a9,9,0,1,1,4.76,17.44,9.09,9.09,0,0,1-11-6.35A9,9,0,0,1,228.8,45.84Z"/><path class="cls-1" d="M250.87,37.77a8.13,8.13,0,1,1,4.28,15.69,8.13,8.13,0,0,1-4.28-15.69Z"/><path class="cls-1" d="M255.05,15.84A7.32,7.32,0,1,1,258.91,30a7.32,7.32,0,0,1-3.86-14.12Z"/><path class="cls-1" d="M239.56.26a6.54,6.54,0,0,1,8.17,4.62A6.58,6.58,0,1,1,239.56.26Z"/><path class="cls-1" d="M219.83,1.44A5.93,5.93,0,1,1,223,12.88a5.93,5.93,0,0,1-3.12-11.44Z"/><path class="cls-1" d="M206.8,13.49a5.34,5.34,0,1,1,2.81,10.3,5.34,5.34,0,0,1-2.81-10.3Z"/><path class="cls-1" d="M203.57,28.87a4.8,4.8,0,1,1,2.53,9.27,4.81,4.81,0,0,1-2.53-9.27Z"/><path class="cls-1" d="M209.59,43.65A4.32,4.32,0,1,1,211.86,52a4.32,4.32,0,0,1-2.27-8.34Z"/></g></g></svg>